<?xml version="1.0" encoding="UTF-8" standalone="no"?>
<svg
   xmlns:dc="http://purl.org/dc/elements/1.1/"
   xmlns:cc="http://creativecommons.org/ns#"
   xmlns:rdf="http://www.w3.org/1999/02/22-rdf-syntax-ns#"
   xmlns:svg="http://www.w3.org/2000/svg"
   xmlns="http://www.w3.org/2000/svg"
   xmlns:sodipodi="http://sodipodi.sourceforge.net/DTD/sodipodi-0.dtd"
   xmlns:inkscape="http://www.inkscape.org/namespaces/inkscape"
   width="210mm"
   height="297mm"
   viewBox="0 0 210 297"
   version="1.1"
   id="svg8"
   inkscape:version="1.0.1 (3bc2e813f5, 2020-09-07)"
   sodipodi:docname="glasses.svg">
  <defs
     id="defs2" />
  <sodipodi:namedview
     id="base"
     pagecolor="#ffffff"
     bordercolor="#666666"
     borderopacity="1.0"
     inkscape:pageopacity="0.0"
     inkscape:pageshadow="2"
     inkscape:zoom="0.96499785"
     inkscape:cx="-2133.3721"
     inkscape:cy="-129.99786"
     inkscape:document-units="mm"
     inkscape:current-layer="g849"
     inkscape:document-rotation="0"
     showgrid="false"
     showguides="true"
     inkscape:guide-bbox="true"
     inkscape:window-width="2560"
     inkscape:window-height="1377"
     inkscape:window-x="1912"
     inkscape:window-y="-8"
     inkscape:window-maximized="1"
     inkscape:snap-global="true">
    <sodipodi:guide
       position="-450.95254,351.28493"
       orientation="0,-1"
       id="guide853" />
    <sodipodi:guide
       position="-450.47812,328.53073"
       orientation="0,-1"
       id="guide855" />
  </sodipodi:namedview>
  <metadata
     id="metadata5">
    <rdf:RDF>
      <cc:Work
         rdf:about="">
        <dc:format>image/svg+xml</dc:format>
        <dc:type
           rdf:resource="http://purl.org/dc/dcmitype/StillImage" />
        <dc:title />
      </cc:Work>
    </rdf:RDF>
  </metadata>
  <g
     inkscape:label="Livello 1"
     inkscape:groupmode="layer"
     id="layer1">
    <g
       id="g6193"
       transform="translate(-61.005654,16.389579)"
       inkscape:export-xdpi="50.799999"
       inkscape:export-ydpi="50.799999">
      <rect
         style="fill:#e6e6e6;fill-opacity:1;stroke:none;stroke-width:0.319732;stroke-linejoin:round;stroke-miterlimit:4;stroke-dasharray:none;stroke-opacity:1"
         id="rect6110"
         width="6.6468687"
         height="99.495903"
         x="-733.49506"
         y="-128.68524" />
      <path
         id="path3513"
         style="fill:#000000;stroke:#999999;stroke-width:0.3;stroke-miterlimit:4;stroke-dasharray:none;stroke-opacity:1"
         d="m -738.68249,-27.899752 c 0,0 -1.67699,-1.326232 -1.67866,-2.266335 -0.0271,-15.235558 0,-50.378553 0,-50.378553 v -50.37855 l 23.88765,-0.17222 c 18.67458,-0.13463 24.00234,0.008 24.41318,0.65566 0.80521,1.26846 0.67191,96.072662 -0.13919,98.993161 -0.50935,1.833995 -0.79674,2.911297 -2.54868,3.54411 -2.50719,0.905619 -8.01383,0.900902 -21.46298,0.900902 0,0 -13.02679,-10e-6 -20.47075,0 -0.80882,1e-6 -2.00057,-0.898175 -2.00057,-0.898175 z m 43.08505,-2.544025 c 0.36708,-0.450764 0.78159,-2.976276 0.92113,-5.612253 0.24217,-4.574714 0.1931,-4.773063 -1.07889,-4.361245 -6.09504,1.973304 -10.35346,2.36262 -22.96927,2.099911 -10.12502,-0.210839 -13.7669,-0.521437 -15.98212,-1.363032 -1.57793,-0.599486 -2.9794,-1.089977 -3.11437,-1.089977 -0.13496,0 -0.24539,1.968328 -0.24539,4.374058 0,7.149806 -1.22621,6.772109 21.98584,6.772109 15.05944,0 19.97583,-0.196717 20.48307,-0.819571 z m -2.30993,-12.126426 3.11437,-1.404719 v -42.326733 -42.326735 h -21.63667 -21.63668 v 41.860419 c 0,46.966386 -0.41906,43.164487 4.91742,44.613312 4.49074,1.219207 5.55154,1.282471 19.01406,1.133893 11.8138,-0.130378 13.42172,-0.283906 16.2275,-1.549435 z"
         sodipodi:nodetypes="csccsssssscsssssssssccccccssssc" />
    </g>
    <g
       id="g6197"
       transform="translate(-315.04412,20.942239)"
       inkscape:export-xdpi="50.799999"
       inkscape:export-ydpi="50.799999">
      <g
         id="g6201"
         transform="translate(66.315876,-200.23531)">
        <rect
           style="fill:#e6e6e6;fill-opacity:1;stroke:none;stroke-width:0.23738;stroke-linejoin:round;stroke-miterlimit:4;stroke-dasharray:none;stroke-opacity:1"
           id="rect6110-9"
           width="6.6468692"
           height="54.84296"
           x="-486.84265"
           y="111.62301" />
        <path
           id="path3519"
           style="fill:#000000;stroke:#999999;stroke-width:0.655657;stroke-opacity:1"
           d="m -493.13503,165.70253 c -0.77774,-2.26829 -1.3629,-2.23413 -1.19499,-29.01281 l 0.17103,-27.27621 h 24.91496 24.91496 v 27.63309 c 0,26.25374 -0.0623,27.70196 -1.24902,29.01282 -1.22337,1.35139 -1.71041,1.37972 -23.71997,1.37972 0,0 0,0 -22.47096,0 -0.73649,0 -1.36601,-1.73661 -1.36601,-1.73661 z m 45.72438,-1.01715 c 0.47927,-0.47927 0.78678,-2.81305 0.78678,-5.97106 0,-4.67899 -0.11182,-5.13855 -1.14739,-4.71518 -4.24801,1.73668 -6.75254,1.96097 -21.8006,1.95237 -13.58756,-0.008 -16.51838,-0.18281 -19.01405,-1.13563 -1.62275,-0.61954 -3.13315,-1.13074 -3.35646,-1.13599 -0.6583,-0.0155 0.15387,10.07682 0.88302,10.97271 0.94156,1.15688 42.4934,1.18809 43.6487,0.0328 z m -4.24662,-11.58891 c 5.21216,-1.29118 5.03345,-0.49897 5.03305,-22.31182 l -3.5e-4,-19.40417 -20.48893,0.13414 c -11.2689,0.0738 -21.52158,0.1473 -22.78372,0.16341 l -2.2948,0.0292 0.17602,19.17846 0.17602,19.17848 1.60565,1.42538 c 1.06942,0.94936 2.8718,1.56352 5.39706,1.83905 2.08528,0.22753 4.38151,0.52569 5.10273,0.66258 2.45229,0.46546 25.55886,-0.2709 28.07727,-0.89478 z"
           sodipodi:nodetypes="sscccsssssssscssssssscsscccsssss" />
      </g>
    </g>
    <g
       id="g6151"
       transform="translate(-423.95197,-297.77793)"
       style="stroke:#999999;stroke-opacity:1"
       inkscape:export-xdpi="50.799999"
       inkscape:export-ydpi="50.799999">
      <path
         style="fill:#e6e6e6;fill-opacity:1;stroke:none;stroke-width:0.265;stroke-linecap:butt;stroke-linejoin:miter;stroke-miterlimit:4;stroke-dasharray:none;stroke-opacity:1"
         d="m -246.60491,198.40251 c 0,0 -2.1547,9.64804 -2.76708,13.97911 -0.61238,4.33107 -0.98033,8.65979 -1.02435,11.95074 -0.044,3.29095 -0.1699,5.36607 0.45527,7.73952 0.62517,2.37345 1.93917,4.61929 3.07305,6.2599 1.13388,1.64061 2.12617,2.4396 3.41449,3.64213 1.28832,1.20253 2.7293,2.43809 4.32503,3.52832 1.59573,1.09023 5.23556,2.95923 5.23556,2.95923 l 7.51189,0.11381 c 0,0 -5.50935,-3.19008 -7.51189,-5.00792 -2.00254,-1.81784 -3.30531,-3.68172 -4.55266,-5.57701 -1.24735,-1.89529 -2.14388,-3.15901 -2.95923,-5.69083 -0.81535,-2.53182 -1.26097,-6.35481 -1.3658,-9.44677 -0.10483,-3.09196 0.2846,-6.2749 0.6829,-8.99151 0.3983,-2.71661 0.97067,-4.72187 1.59343,-7.28425 0.62276,-2.56238 2.16252,-8.08098 2.16252,-8.08098 l -8.27313,-0.0935"
         id="path6127"
         sodipodi:nodetypes="czzzzzzcczzzzzzcc" />
      <path
         id="path963"
         style="fill:#000000;stroke:#999999;stroke-width:0.655657;stroke-opacity:1"
         d="m -252.55377,280.88415 c -0.43274,-0.43274 -0.78679,-1.26148 -0.78679,-1.84166 0,-2.39677 1.59289,-3.23456 7.94555,-4.179 7.97999,-1.18638 10.13794,-2.25949 11.03431,-5.48717 1.19993,-4.32073 0.8603,-10.69355 -0.70691,-13.26441 -1.77576,-2.91295 -2.3774,-3.35674 -9.0404,-6.66845 -6.04598,-3.00502 -9.68236,-6.19812 -11.98837,-10.52693 -1.33008,-2.49679 -1.49462,-3.70003 -1.46074,-10.68163 0.0437,-8.99761 1.49074,-14.86021 6.3925,-25.89845 l 2.76601,-6.22874 18.0183,-0.15972 c 9.91007,-0.0879 18.32808,0.0597 18.70671,0.32783 0.98635,0.69857 4.08716,7.4801 6.229,13.62292 5.53587,15.87694 4.90069,27.3336 -1.88265,33.95736 -1.33335,1.30198 -5.37199,3.94422 -8.97477,5.87165 -7.16181,3.83147 -9.03575,5.82277 -9.76372,10.37525 -0.52986,3.31355 0.0841,8.09538 1.3628,10.61385 1.15774,2.28027 2.93822,2.99246 10.29973,4.11988 5.89724,0.90317 8.26995,2.10303 8.26995,4.18207 0,2.55537 -0.8612,2.65213 -23.60365,2.65213 -16.26029,0 -22.23614,-0.20606 -22.81686,-0.78678 z m 43.14222,-2.42583 c -0.54091,-0.30256 -2.75376,-0.70602 -4.91742,-0.89658 -2.16367,-0.19056 -5.5567,-0.91053 -7.54006,-1.59992 -2.94857,-1.0249 -3.86711,-1.72455 -5.0375,-3.837 -2.61956,-4.72808 -2.37333,-14.20662 0.47095,-18.12884 0.70854,-0.97708 1.28827,-1.93598 1.28827,-2.13089 0,-0.1949 -2.26428,-0.35437 -5.03172,-0.35437 h -5.03172 l 1.33478,1.47523 c 1.93656,2.14032 2.82774,5.35002 2.82774,10.18445 0,10.18127 -3.20238,13.32868 -14.60954,14.35877 -10.20343,0.92139 -3.81901,1.5179 16.04608,1.4992 11.76898,-0.0111 20.74654,-0.26442 20.20014,-0.57005 z m -8.10753,-31.17955 c 4.85254,-1.67723 9.35485,-5.3353 11.33434,-9.20902 1.47459,-2.88564 1.67184,-4.06356 1.64697,-9.83485 -0.0314,-7.27537 -0.9971,-11.58352 -4.69883,-20.96149 -3.8883,-9.85067 -1.58944,-8.8709 -20.81401,-8.8709 h -16.5543 l -1.71967,3.83192 c -6.0785,13.5447 -8.37056,25.56741 -6.29739,33.03222 1.55767,5.60871 7.6435,10.92071 14.49827,12.65477 4.96401,1.25576 18.20096,0.87943 22.60462,-0.64265 z" />
    </g>
    <g
       id="g6157"
       transform="translate(-590.72637,-138.74826)" />
    <g
       id="g6163"
       transform="translate(-720.6862,-129.75083)"
       inkscape:export-xdpi="50.799999"
       inkscape:export-ydpi="50.799999">
      <g
         id="g6167">
        <path
           style="fill:#e8e8e8;fill-opacity:1;stroke:none;stroke-width:0.264583px;stroke-linecap:butt;stroke-linejoin:miter;stroke-opacity:1"
           d="m 120.80113,27.443827 v 1.81081 l -0.0805,2.696094 0.0403,2.575375 0.0805,2.454653 0.4024,2.736334 0.84504,2.293692 1.32793,2.293691 2.17297,2.857055 2.33394,2.213214 3.86306,2.333931 3.82282,1.770571 2.81681,1.287687 2.81682,1.046245 1.48888,0.482883 -1.08648,-1.327928 -3.0985,-2.575375 -1.93153,-2.17297 -2.8973,-3.46066 -2.17297,-2.937533 -1.52913,-3.863063 -1.006,-3.983781 -0.24144,-3.018014 0.2012,-4.225224 0.0805,-1.368168 z"
           id="path6159" />
        <path
           id="path3531"
           style="fill:#000000;stroke:#999999;stroke-width:0.655657;stroke-opacity:1"
           d="m 127.8655,113.63277 c -1.04298,-1.94882 0.51979,-3.31827 4.54113,-3.97937 4.69351,-0.77161 6.50353,-1.50045 9.05224,-3.64504 l 2.09392,-1.76193 V 84.404144 c 0,-23.91513 0.43011,-22.60436 -8.96109,-27.30923 -12.09691,-6.06039 -16.19928,-9.88501 -18.34535,-17.10329 -1.14935,-3.86585 -0.96299,-11.05922 0.35009,-13.51272 l 0.77622,-1.45038 h 29.72904 c 25.93753,0 29.83564,0.12846 30.56497,1.00724 0.45976,0.55398 0.97402,3.15905 1.14281,5.78904 0.7289,11.35783 -4.85519,19.12467 -17.55395,24.41554 -2.34397,0.9766 -5.22097,2.48246 -6.39334,3.34636 -4.03509,2.9734 -4.09717,3.35378 -4.09717,25.10383 v 19.732076 l 1.5467,1.54669 c 1.39851,1.39852 4.53526,2.58406 10.84244,4.09792 2.49145,0.59801 3.76294,2.10002 3.14372,3.71369 -0.36774,0.95831 -2.40246,1.0726 -19.09532,1.0726 -17.55062,0 -18.72336,-0.074 -19.33706,-1.22074 z m 34.04569,-0.99184 c 0,-0.13508 -2.03825,-0.90099 -4.52944,-1.70202 -5.76991,-1.85527 -8.35323,-4.26352 -8.9675,-8.35977 -0.24784,-1.65269 -0.30815,-10.898956 -0.13404,-20.547256 0.29725,-16.47157 0.40276,-17.68843 1.72852,-19.93543 0.77657,-1.31619 1.41195,-2.48685 1.41195,-2.60146 0,-0.11462 -1.90498,-0.2084 -4.23328,-0.2084 h -4.23329 l 1.28283,2.51455 c 1.19141,2.33537 1.28283,3.95844 1.28283,22.77761 0,19.802666 -0.0323,20.304186 -1.42353,22.072766 -1.50855,1.91781 -7.1941,4.89974 -9.39481,4.92734 -0.72123,0.009 -1.75389,0.30245 -2.2948,0.65202 -0.65061,0.42046 4.17613,0.63898 14.26054,0.64562 8.38421,0.005 15.24402,-0.10048 15.24402,-0.23557 z m -8.44912,-56.134176 c 5.30727,-0.97522 14.95355,-5.97659 18.09,-9.37922 4.25287,-4.61383 6.23181,-11.41564 5.04612,-17.34404 l -0.3931,-1.96552 -28.51268,-0.48549 c -20.06293,-0.34162 -28.7215,-0.27667 -29.21734,0.21917 -0.38756,0.38756 -0.73077,3.00262 -0.76269,5.81125 -0.10495,9.23536 3.95355,14.82985 14.4602,19.93282 7.64207,3.71166 13.64099,4.61646 21.28949,3.21103 z" />
      </g>
    </g>
    <g
       id="g851"
       transform="translate(-71.537497,20.942239)"
       inkscape:export-xdpi="50.799999"
       inkscape:export-ydpi="50.799999">
      <g
         id="g849"
         transform="translate(66.315876,-200.23531)">
        <g
           id="g874"
           transform="matrix(0.70560519,0,0,0.98853503,-184.98457,1.4332165)"
           inkscape:export-filename="C:\Users\matte\Desktop\JackallosProjects\cocktail-list-v2\public\images\mug.png"
           inkscape:export-xdpi="50"
           inkscape:export-ydpi="50">
          <rect
             style="fill:#c33704;fill-opacity:1;stroke:none;stroke-width:0.23738;stroke-linejoin:round;stroke-miterlimit:4;stroke-dasharray:none;stroke-opacity:1"
             id="rect845"
             width="6.6468692"
             height="54.84296"
             x="-486.84265"
             y="111.62301" />
          <path
             id="path847"
             style="fill:#9f0000;fill-opacity:1;stroke:#e87b5e;stroke-width:0.655657;stroke-opacity:1"
             d="m -493.13503,165.70253 c -0.77774,-2.26829 -1.3629,-2.23413 -1.19499,-29.01281 l 0.17103,-27.27621 h 24.91496 24.91496 v 27.63309 c 0,26.25374 -0.0623,27.70196 -1.24902,29.01282 -1.22337,1.35139 -1.71041,1.37972 -23.71997,1.37972 h -22.47096 c -0.73649,0 -1.36601,-1.73661 -1.36601,-1.73661 z m 2.07568,-1.04993 c 0.94156,1.15688 42.4934,1.18809 43.6487,0.0328 v -2e-5 c 0.47927,-0.47927 0.78678,-2.81305 0.78678,-5.97106 0,-4.67899 0.14506,-30.30464 0.14506,-30.30464 l -0.14576,-17.0292 -20.48893,0.13414 c -11.2689,0.0738 -21.52158,0.1473 -22.78372,0.16341 l -2.2948,0.0292 0.17602,19.17846 0.12482,20.98634 c -0.16113,1.92945 0.10268,11.88468 0.83183,12.78057 z"
             sodipodi:nodetypes="sscccsssssssssccsscccs" />
          <path
             id="path868"
             style="fill:#b43400;fill-opacity:1;stroke:#e87b5e;stroke-width:0.665;stroke-linecap:butt;stroke-linejoin:miter;stroke-miterlimit:4;stroke-dasharray:none;stroke-opacity:1"
             d="m -444.26259,147.76234 c 0,0 10.82631,0.44541 14.29163,-3.83852 3.46532,-4.28393 3.67672,-14.60127 1.23381,-18.91568 -2.44291,-4.31441 -6.56469,-5.30364 -9.59631,-4.938 -3.03162,0.36564 -5.68383,4.938 -5.68383,4.938 l 0.0194,-2.36986 c 0,0 2.97609,-5.53058 6.37785,-5.97284 3.40175,-0.44227 8.02677,0.75427 10.76794,5.97284 2.74116,5.21856 2.50395,17.69806 -1.38446,22.87975 -3.8884,5.1817 -15.94862,4.64294 -15.94862,4.64294 z"
             sodipodi:nodetypes="csssccssscc" />
        </g>
      </g>
    </g>
  </g>
</svg>
