<?xml version="1.0" encoding="UTF-8" standalone="no"?>
<svg
   xmlns:svg="http://www.w3.org/2000/svg"
   xmlns="http://www.w3.org/2000/svg"
   viewBox="0 0 5.4120865 3.1600344"
   version="1.1"
>
  <g transform="translate(-38.985084,-43.526546)">
    <path
      style="fill:#ffffff; stroke-width:0.0105802"
      d="m 44.382059,46.337155 c -0.04845,0.223089 -0.280429,0.380918 -0.505145,0.343681 -0.156668,-0.02596 -0.08576,0.03746 -1.184808,-1.059573 l -1.00247,-1.000624 -1.002471,1.000624 c -1.09905,1.097028 -1.02814,1.033612 -1.184807,1.059573 -0.293455,0.04863 -0.559602,-0.219121 -0.511648,-0.514724 0.02544,-0.156789 -0.04451,-0.07974 1.24098,-1.366847 0.779955,-0.780931 1.192396,-1.186539 1.229226,-1.208859 0.03218,-0.01951 0.08986,-0.04107 0.137536,-0.05141 0.07029,-0.01525 0.09305,-0.01597 0.158063,-0.005 0.158121,0.02677 0.08067,-0.04355 1.367602,1.241767 0.782891,0.781912 1.186512,1.192352 1.208947,1.229369 0.03324,0.05485 0.06535,0.172043 0.06407,0.233867 -3.6e-4,0.01746 -0.0071,0.06161 -0.01507,0.09812 z"
   />
  </g>
</svg>
